Coordinates
version=1
nRows=6
nColumns=63
inDegrees=yes

Units are S.I. units (second, meters, Newtons, ...)
If the header above contains a line with 'inDegrees', this indicates whether rotational values are in degrees (yes) or radians (no).

endheader
time	pelvis_tilt	pelvis_list	pelvis_rotation	pelvis_tx	pelvis_ty	pelvis_tz	hip_flexion_r	hip_adduction_r	hip_rotation_r	knee_angle_r	knee_angle_r_beta	ankle_angle_r	subtalar_angle_r	mtp_angle_r	hip_flexion_l	hip_adduction_l	hip_rotation_l	knee_angle_l	knee_angle_l_beta	ankle_angle_l	subtalar_angle_l	mtp_angle_l	L5_S1_Flex_Ext	L5_S1_Lat_Bending	L5_S1_axial_rotation	L4_L5_Flex_Ext	L4_L5_Lat_Bending	L4_L5_axial_rotation	L3_L4_Flex_Ext	L3_L4_Lat_Bending	L3_L4_axial_rotation	L2_L3_Flex_Ext	L2_L3_Lat_Bending	L2_L3_axial_rotation	L1_L2_Flex_Ext	L1_L2_Lat_Bending	L1_L2_axial_rotation	L1_T12_Flex_Ext	L1_T12_Lat_Bending	L1_T12_axial_rotation	Abs_r3	Abs_r2	Abs_r1	Abs_t1	Abs_t2	neck_flexion	neck_bending	neck_rotation	arm_flex_r	arm_add_r	arm_rot_r	elbow_flex_r	pro_sup_r	wrist_flex_r	wrist_dev_r	arm_flex_l	arm_add_l	arm_rot_l	elbow_flex_l	pro_sup_l	wrist_flex_l	wrist_dev_l
      5.00000000	     -2.67582024	    -10.41239247	    172.75321227	     -0.45875543	      0.93006739	      0.13275186	    -15.53812468	     -7.96717976	     17.56997424	      0.13816418	      0.00241142	   -124.30416571	    -18.19982901	      0.00000000	     -4.69203452	     14.13968703	    -69.76750946	      3.21538707	      0.05611909	    -42.31506489	    -19.82118062	      0.00000000	      0.18933655	     -1.24641619	     -5.36235864	      0.35161691	     -1.65773353	     -5.69750605	      0.31106102	     -3.03053632	     -5.69750605	      0.21639275	     -3.03053632	     -4.69206381	      0.17581792	     -2.54169189	     -4.35691639	      0.10818691	     -1.93069867	     -4.02176898	      1.35241206	    -14.09970919	    -29.82383004	      0.00000000	      0.00000000	     27.63199988	    -34.72878890	    -43.94829523	    -10.86199553	    -17.07202670	    165.69250256	      0.51873472	    -74.42099935	     20.00394843	      5.00000014	     -4.19015661	    -30.28375883	   -592.76579587	     46.98301171	     44.26613963	     20.00394843	      5.00000014
      5.03333333	     -0.32527962	    -11.59519208	    174.70859945	     -0.46275669	      0.92606281	      0.13461398	    -14.06780371	     -8.41070019	     13.95930720	      0.13845930	      0.00241657	   -123.45780070	    -18.25150558	      0.00000000	     -2.46136477	     15.53929242	    -69.79368406	      2.96676560	      0.05177983	    -40.28849433	    -19.83119929	      0.00000000	      0.26274856	     -1.18969832	     -4.97193091	      0.48795035	     -1.58229877	     -5.28267660	      0.43166961	     -2.89263250	     -5.28267660	      0.30029533	     -2.89263250	     -4.35043955	      0.24398831	     -2.42603282	     -4.03969387	      0.15013453	     -1.84284270	     -3.72894819	      1.87678668	    -13.45810538	    -27.65238817	      0.00000000	      0.00000000	     27.79181853	    -39.74826404	    -44.04801571	    -14.57557037	    -18.57864884	    146.71908844	      3.12832196	    -59.37714462	     20.00394843	      5.00000014	     -1.93228298	    -29.74524097	   -588.71959315	     46.36740851	     47.42547478	     20.00394843	      5.00000014
      5.06666667	      2.15563518	    -12.31048635	    176.28567548	     -0.46535049	      0.92289728	      0.13549686	    -11.83668677	     -8.43040013	     13.89679881	      0.13822198	      0.00241243	   -124.98967988	    -18.02321964	      0.00000000	     -0.09653049	     16.63918951	    -69.81221459	      2.42496958	      0.04232370	    -38.70182095	    -19.83851268	      0.00000000	      0.33313339	     -1.14238678	     -4.63989058	      0.61866203	     -1.51937442	     -4.92988374	      0.54730485	     -2.77759922	     -4.92988374	      0.38073816	     -2.77759922	     -4.05990426	      0.30934767	     -2.32955513	     -3.76991110	      0.19035242	     -1.76955713	     -3.47991794	      2.37953852	    -12.92290776	    -25.80567944	      0.00000000	      0.00000000	     27.86169171	    -40.18026555	    -44.06987291	    -13.60438217	    -19.43071103	    146.22272533	      9.42392553	    -59.14704059	     20.00394843	      5.00000014	     -1.00492529	    -29.65500700	   -588.38619703	     45.03697447	     47.49627088	     20.00394843	      5.00000014
      5.10000000	      4.49758951	    -11.53068868	    177.71673630	     -0.46594286	      0.92144270	      0.13593652	     -9.22096141	     -6.87689067	     16.69760325	      0.14100571	      0.00246101	   -127.78618491	    -18.06326761	      0.00000000	      2.29189323	     15.89803720	    -69.82733444	      2.42539176	      0.04233107	    -37.51925874	    -19.84670342	      0.00000000	      0.34412972	     -0.95341092	     -4.48016272	      0.63908331	     -1.26803653	     -4.76017289	      0.56537072	     -2.31812332	     -4.76017289	      0.39330586	     -2.31812332	     -3.92014238	      0.31955886	     -1.94419556	     -3.64013221	      0.19663572	     -1.47683352	     -3.36012204	      2.45808419	    -10.78517505	    -24.91732102	      0.00000000	      0.00000000	     27.89708998	    -42.79339164	    -44.09393565	    -14.20591737	    -11.30458301	    287.33232070	     12.63000370	    -64.00145280	     20.00394843	      5.00000014	      0.02379315	    -26.92350085	   -583.05701887	     40.72180230	     50.73455997	     20.00394843	      5.00000014
      5.13333333	      7.15224915	    -10.55528301	    178.96345389	     -0.46525278	      0.92012594	      0.13572329	     -5.75161710	     -5.17435814	     20.57503865	      0.14375366	      0.00250897	   -131.94972612	    -18.08207387	      0.00000000	      5.14230093	     15.06192051	    -69.84173457	      2.19767688	      0.03835670	    -36.56642543	    -19.85311523	      0.00000000	      0.38016781	     -0.78049331	     -4.37531033	      0.70600964	     -1.03805610	     -4.64876723	      0.62457770	     -1.89769143	     -4.64876723	      0.43449379	     -1.89769143	     -3.82839654	      0.35302383	     -1.59158195	     -3.55493965	      0.21722789	     -1.20898413	     -3.28148275	      2.71550067	     -8.82909640	    -24.33416348	      0.00000000	      0.00000000	     27.91408723	    -42.28779671	    -44.09588613	    -10.63194937	    -11.77290727	    287.81195248	     10.81922068	    -63.68896258	     20.00394843	      5.00000014	     -0.14353511	    -25.36193900	   -582.60034720	     36.50180071	     50.82068265	     20.00394843	      5.00000014
      5.16666667	      9.44297491	     -9.24549134	    179.82409591	     -0.46278753	      0.91986853	      0.13472483	     -2.23513298	     -3.17641398	     26.24792968	      0.14835661	      0.00258931	   -136.08580396	    -17.58408939	      0.00000000	      7.93789240	     13.40271366	    -69.85429923	      2.66371396	      0.04649058	    -36.14214908	    -19.86097365	      0.00000000	      0.37346926	     -0.59546141	     -4.37951575	      0.69356976	     -0.79196368	     -4.65323549	      0.61357265	     -1.44780487	     -4.65323549	      0.42683802	     -1.44780487	     -3.83207628	      0.34680355	     -1.21426491	     -3.55835655	      0.21340033	     -0.92236973	     -3.28463682	      2.66765357	     -6.73597857	    -24.35755277	      0.00000000	      0.00000000	     27.90867136	    -40.92906403	    -44.07538108	     -6.89760808	    -12.45660836	    305.83490690	      7.40012788	    -55.06478906	     20.00394843	      5.00000014	     -0.18671186	    -22.93498411	   -578.72039757	     31.50612943	     50.86876182	     20.00394843	      5.00000014
